<?xml version="1.0" encoding="UTF-8" standalone="no"?>
<!-- Created with Inkscape (http://www.inkscape.org/) -->

<svg
   version="1.1"
   id="svg1"
   width="624"
   height="152"
   viewBox="0 0 624 152"
   xmlns="http://www.w3.org/2000/svg"
   xmlns:svg="http://www.w3.org/2000/svg">
  <defs
     id="defs1" />
  <g
     id="g1">
    <path
       id="path1"
       d="m 35.223,18.91 h -0.602 l 0.883,-3.965 -1.816,2.68 h -0.352 l -0.629,-2.805 -0.906,4.09 h -0.563 l 1.032,-4.668 h 0.816 l 0.602,2.598 1.742,-2.598 h 0.828 z"
       style="fill:#000000;fill-opacity:1;fill-rule:nonzero;stroke:none"
       transform="scale(1.3333333)" />
    <path
       id="path2"
       d="m 39.09,16.777 c 0.008,-0.058 0.015,-0.109 0.019,-0.152 0.004,-0.043 0.008,-0.086 0.008,-0.137 0,-0.226 -0.062,-0.402 -0.179,-0.527 -0.114,-0.125 -0.301,-0.188 -0.559,-0.188 -0.285,0 -0.539,0.094 -0.758,0.278 -0.219,0.183 -0.367,0.426 -0.445,0.726 z m -1.129,2.215 c -0.465,0 -0.828,-0.113 -1.094,-0.34 -0.262,-0.23 -0.394,-0.562 -0.394,-1.004 0,-0.64 0.195,-1.187 0.582,-1.648 0.386,-0.461 0.867,-0.691 1.441,-0.691 0.379,0 0.668,0.101 0.871,0.296 0.203,0.2 0.305,0.477 0.305,0.836 0,0.063 -0.012,0.161 -0.027,0.297 -0.016,0.133 -0.043,0.293 -0.083,0.473 h -2.468 c -0.012,0.062 -0.02,0.121 -0.028,0.18 -0.004,0.058 -0.004,0.113 -0.004,0.16 0,0.301 0.086,0.531 0.258,0.699 0.172,0.164 0.414,0.25 0.731,0.25 0.219,0 0.445,-0.047 0.679,-0.137 0.231,-0.09 0.43,-0.187 0.586,-0.301 h 0.032 l -0.121,0.637 c -0.102,0.039 -0.192,0.071 -0.27,0.102 -0.082,0.031 -0.184,0.062 -0.305,0.094 -0.125,0.031 -0.234,0.054 -0.332,0.074 -0.093,0.015 -0.215,0.023 -0.359,0.023 z"
       style="fill:#000000;fill-opacity:1;fill-rule:nonzero;stroke:none"
       transform="scale(1.3333333)" />
    <path
       id="path3"
       d="m 42.555,15.406 -0.102,0.477 H 41.285 L 40.922,17.5 c -0.02,0.082 -0.035,0.176 -0.051,0.285 -0.016,0.102 -0.023,0.188 -0.023,0.25 0,0.153 0.035,0.266 0.109,0.34 0.074,0.074 0.215,0.113 0.41,0.113 0.082,0 0.18,-0.019 0.297,-0.043 0.109,-0.035 0.184,-0.058 0.227,-0.074 h 0.031 l -0.106,0.508 c -0.109,0.031 -0.23,0.055 -0.359,0.074 -0.129,0.02 -0.242,0.027 -0.34,0.027 -0.273,0 -0.488,-0.062 -0.64,-0.187 -0.149,-0.129 -0.223,-0.332 -0.223,-0.602 0,-0.066 0.004,-0.132 0.012,-0.199 0.007,-0.066 0.019,-0.14 0.039,-0.222 l 0.414,-1.887 H 40.34 l 0.101,-0.477 h 0.379 l 0.227,-1.004 h 0.562 l -0.222,1.004 z"
       style="fill:#000000;fill-opacity:1;fill-rule:nonzero;stroke:none"
       transform="scale(1.3333333)" />
    <path
       id="path4"
       d="m 45.816,16.207 c 0,0.047 -0.004,0.117 -0.015,0.207 -0.008,0.082 -0.02,0.16 -0.035,0.223 l -0.504,2.273 h -0.563 l 0.438,-1.996 c 0.027,-0.109 0.043,-0.203 0.054,-0.285 0.016,-0.086 0.024,-0.168 0.024,-0.246 0,-0.18 -0.043,-0.313 -0.129,-0.399 -0.082,-0.089 -0.231,-0.132 -0.445,-0.132 -0.153,0 -0.321,0.043 -0.504,0.128 -0.184,0.09 -0.36,0.192 -0.535,0.313 l -0.579,2.617 h -0.562 l 1.074,-4.883 h 0.567 l -0.391,1.77 c 0.215,-0.156 0.414,-0.277 0.601,-0.363 0.188,-0.082 0.379,-0.125 0.579,-0.125 0.289,0 0.519,0.078 0.679,0.23 0.164,0.156 0.246,0.379 0.246,0.668 z"
       style="fill:#000000;fill-opacity:1;fill-rule:nonzero;stroke:none"
       transform="scale(1.3333333)" />
    <path
       id="path5"
       d="m 49.645,16.648 c 0,0.309 -0.047,0.614 -0.137,0.903 -0.094,0.289 -0.223,0.539 -0.391,0.75 -0.176,0.226 -0.375,0.398 -0.609,0.523 -0.223,0.121 -0.492,0.184 -0.793,0.184 -0.403,0 -0.711,-0.117 -0.938,-0.352 -0.218,-0.242 -0.332,-0.57 -0.332,-0.988 0,-0.313 0.047,-0.609 0.137,-0.895 0.09,-0.285 0.223,-0.539 0.395,-0.761 0.168,-0.211 0.371,-0.383 0.609,-0.512 0.242,-0.129 0.504,-0.191 0.797,-0.191 0.379,0 0.691,0.117 0.918,0.347 0.23,0.231 0.344,0.559 0.344,0.992 z m -0.922,1.325 c 0.113,-0.168 0.195,-0.364 0.246,-0.582 0.062,-0.219 0.09,-0.453 0.09,-0.696 0,-0.297 -0.067,-0.515 -0.2,-0.668 -0.14,-0.148 -0.324,-0.222 -0.566,-0.222 -0.199,0 -0.371,0.047 -0.527,0.144 -0.153,0.098 -0.286,0.231 -0.399,0.403 -0.109,0.164 -0.191,0.355 -0.25,0.574 -0.058,0.226 -0.086,0.457 -0.086,0.691 0,0.293 0.067,0.512 0.199,0.668 0.137,0.153 0.325,0.235 0.571,0.235 0.191,0 0.371,-0.055 0.527,-0.149 0.152,-0.098 0.289,-0.23 0.395,-0.398 z"
       style="fill:#000000;fill-opacity:1;fill-rule:nonzero;stroke:none"
       transform="scale(1.3333333)" />
    <path
       id="path6"
       d="M 53.875,14.027 52.797,18.91 H 52.23 l 0.082,-0.367 c -0.253,0.184 -0.457,0.305 -0.613,0.367 -0.156,0.067 -0.324,0.098 -0.504,0.098 -0.316,0 -0.566,-0.106 -0.754,-0.313 -0.183,-0.207 -0.277,-0.515 -0.277,-0.91 0,-0.34 0.051,-0.656 0.152,-0.957 0.098,-0.301 0.235,-0.566 0.407,-0.789 0.172,-0.223 0.371,-0.398 0.605,-0.531 0.231,-0.133 0.477,-0.199 0.734,-0.199 0.18,0 0.344,0.019 0.493,0.058 0.152,0.043 0.293,0.102 0.422,0.18 l 0.335,-1.52 z m -1.008,2.012 c -0.133,-0.074 -0.265,-0.129 -0.394,-0.16 -0.129,-0.035 -0.266,-0.055 -0.411,-0.055 -0.21,0 -0.394,0.055 -0.558,0.156 -0.164,0.106 -0.301,0.247 -0.418,0.434 -0.106,0.164 -0.188,0.359 -0.246,0.59 -0.055,0.234 -0.082,0.461 -0.082,0.676 0,0.258 0.051,0.453 0.156,0.59 0.106,0.132 0.277,0.199 0.512,0.199 0.168,0 0.34,-0.047 0.512,-0.133 0.175,-0.086 0.339,-0.184 0.488,-0.285 z"
       style="fill:#000000;fill-opacity:1;fill-rule:nonzero;stroke:none"
       transform="scale(1.3333333)" />
    <path
       id="path7"
       d="m 54.957,18.996 c -0.25,0 -0.477,-0.031 -0.676,-0.098 -0.195,-0.062 -0.359,-0.132 -0.492,-0.207 l 0.125,-0.632 h 0.031 c 0.043,0.039 0.094,0.082 0.16,0.132 0.075,0.051 0.157,0.102 0.258,0.153 0.098,0.047 0.203,0.09 0.325,0.125 0.121,0.031 0.25,0.054 0.39,0.054 0.281,0 0.504,-0.058 0.664,-0.168 0.16,-0.109 0.238,-0.265 0.238,-0.476 0,-0.109 -0.039,-0.199 -0.121,-0.258 -0.082,-0.059 -0.199,-0.109 -0.355,-0.148 -0.078,-0.016 -0.172,-0.039 -0.281,-0.063 -0.106,-0.019 -0.219,-0.047 -0.332,-0.078 -0.235,-0.07 -0.407,-0.168 -0.52,-0.301 -0.109,-0.133 -0.168,-0.289 -0.168,-0.476 0,-0.164 0.035,-0.321 0.102,-0.461 0.066,-0.141 0.168,-0.274 0.304,-0.391 0.125,-0.113 0.289,-0.207 0.489,-0.273 0.199,-0.075 0.422,-0.11 0.664,-0.11 0.199,0 0.398,0.028 0.593,0.078 0.204,0.055 0.364,0.122 0.493,0.2 l -0.121,0.597 h -0.032 c -0.031,-0.027 -0.082,-0.062 -0.144,-0.109 -0.067,-0.043 -0.149,-0.09 -0.246,-0.141 -0.086,-0.039 -0.188,-0.07 -0.305,-0.101 -0.113,-0.028 -0.234,-0.043 -0.355,-0.043 -0.254,0 -0.457,0.054 -0.61,0.164 -0.156,0.109 -0.234,0.258 -0.234,0.449 0,0.106 0.039,0.191 0.113,0.266 0.078,0.066 0.188,0.121 0.348,0.16 0.097,0.027 0.199,0.051 0.304,0.07 0.11,0.024 0.215,0.047 0.313,0.074 0.234,0.055 0.406,0.153 0.523,0.282 0.118,0.125 0.176,0.285 0.176,0.476 0,0.164 -0.035,0.32 -0.109,0.477 -0.074,0.152 -0.176,0.281 -0.317,0.398 -0.14,0.121 -0.312,0.211 -0.515,0.278 -0.207,0.066 -0.43,0.101 -0.68,0.101 z"
       style="fill:#000000;fill-opacity:1;fill-rule:nonzero;stroke:none"
       transform="scale(1.3333333)" />
    <path
       id="path8"
       d="m 63.629,17.113 h -1.633 v 1.715 H 61.5 V 17.113 H 59.859 V 16.617 H 61.5 v -1.715 h 0.496 v 1.715 h 1.633 z"
       style="fill:#000000;fill-opacity:1;fill-rule:nonzero;stroke:none"
       transform="scale(1.3333333)" />
    <path
       id="path9"
       d="m 69.578,16.688 c -0.183,0.156 -0.39,0.277 -0.617,0.355 -0.227,0.082 -0.5,0.121 -0.82,0.121 H 67.488 L 67.102,18.91 H 66.5 l 1.031,-4.668 h 1.18 c 0.273,0 0.5,0.024 0.676,0.074 0.179,0.051 0.324,0.122 0.437,0.215 0.117,0.094 0.207,0.207 0.27,0.348 0.062,0.133 0.094,0.293 0.094,0.484 0,0.258 -0.055,0.5 -0.161,0.727 -0.105,0.226 -0.254,0.43 -0.449,0.598 z m -0.027,-1.219 c 0,-0.106 -0.016,-0.203 -0.051,-0.297 -0.031,-0.09 -0.086,-0.168 -0.156,-0.223 -0.086,-0.07 -0.192,-0.125 -0.309,-0.152 C 68.922,14.766 68.77,14.75 68.582,14.75 H 68.02 l -0.418,1.906 h 0.535 c 0.238,0 0.437,-0.023 0.597,-0.07 0.161,-0.043 0.297,-0.117 0.414,-0.223 0.133,-0.117 0.235,-0.25 0.301,-0.398 0.071,-0.149 0.102,-0.317 0.102,-0.496 z"
       style="fill:#000000;fill-opacity:1;fill-rule:nonzero;stroke:none"
       transform="scale(1.3333333)" />
    <path
       id="path10"
       d="m 72.621,17.066 c -0.309,0.008 -0.582,0.036 -0.824,0.075 -0.238,0.035 -0.434,0.086 -0.59,0.156 -0.16,0.066 -0.285,0.16 -0.367,0.281 -0.086,0.121 -0.129,0.266 -0.129,0.442 0,0.148 0.051,0.261 0.148,0.339 0.098,0.086 0.25,0.125 0.457,0.125 0.18,0 0.368,-0.046 0.555,-0.129 0.188,-0.085 0.367,-0.187 0.531,-0.304 z m -0.328,1.473 c -0.055,0.035 -0.129,0.082 -0.223,0.145 -0.09,0.058 -0.183,0.113 -0.281,0.156 -0.101,0.047 -0.215,0.086 -0.34,0.117 -0.129,0.035 -0.273,0.051 -0.437,0.051 -0.266,0 -0.481,-0.078 -0.649,-0.238 -0.164,-0.165 -0.246,-0.379 -0.246,-0.641 0,-0.274 0.055,-0.512 0.172,-0.703 0.117,-0.192 0.293,-0.348 0.523,-0.469 0.227,-0.121 0.497,-0.207 0.817,-0.258 0.316,-0.054 0.683,-0.086 1.09,-0.097 0.011,-0.059 0.023,-0.11 0.031,-0.153 0.008,-0.043 0.012,-0.09 0.012,-0.133 0,-0.105 -0.02,-0.183 -0.059,-0.246 -0.035,-0.062 -0.09,-0.113 -0.16,-0.152 -0.07,-0.035 -0.152,-0.063 -0.246,-0.074 -0.094,-0.016 -0.195,-0.024 -0.309,-0.024 -0.168,0 -0.363,0.032 -0.578,0.09 -0.219,0.055 -0.398,0.113 -0.531,0.168 h -0.031 l 0.109,-0.59 c 0.117,-0.031 0.281,-0.066 0.504,-0.105 0.219,-0.043 0.43,-0.063 0.633,-0.063 0.414,0 0.726,0.071 0.933,0.203 0.207,0.141 0.313,0.356 0.313,0.649 0,0.055 -0.004,0.117 -0.016,0.183 -0.008,0.063 -0.015,0.122 -0.031,0.18 L 72.77,18.91 h -0.559 z"
       style="fill:#000000;fill-opacity:1;fill-rule:nonzero;stroke:none"
       transform="scale(1.3333333)" />
    <path
       id="path11"
       d="m 76.566,16.027 h -0.031 c -0.082,-0.019 -0.156,-0.035 -0.226,-0.043 -0.067,-0.011 -0.149,-0.015 -0.247,-0.015 -0.191,0 -0.374,0.043 -0.562,0.133 -0.184,0.089 -0.359,0.195 -0.531,0.324 L 74.43,18.91 h -0.575 l 0.77,-3.504 h 0.57 l -0.113,0.52 c 0.266,-0.196 0.488,-0.328 0.672,-0.403 0.187,-0.082 0.363,-0.117 0.535,-0.117 0.098,0 0.168,0.004 0.211,0.008 0.047,0.004 0.109,0.012 0.195,0.027 z"
       style="fill:#000000;fill-opacity:1;fill-rule:nonzero;stroke:none"
       transform="scale(1.3333333)" />
    <path
       id="path12"
       d="m 78.934,17.066 c -0.309,0.008 -0.582,0.036 -0.821,0.075 -0.238,0.035 -0.437,0.086 -0.59,0.156 -0.164,0.066 -0.285,0.16 -0.371,0.281 -0.082,0.121 -0.125,0.266 -0.125,0.442 0,0.148 0.047,0.261 0.145,0.339 0.101,0.086 0.25,0.125 0.457,0.125 0.183,0 0.367,-0.046 0.555,-0.129 0.191,-0.085 0.367,-0.187 0.531,-0.304 z m -0.329,1.473 c -0.05,0.035 -0.125,0.082 -0.218,0.145 -0.094,0.058 -0.188,0.113 -0.285,0.156 -0.102,0.047 -0.215,0.086 -0.34,0.117 -0.125,0.035 -0.27,0.051 -0.434,0.051 -0.266,0 -0.484,-0.078 -0.648,-0.238 -0.168,-0.165 -0.25,-0.379 -0.25,-0.641 0,-0.274 0.058,-0.512 0.175,-0.703 0.118,-0.192 0.29,-0.348 0.52,-0.469 0.227,-0.121 0.5,-0.207 0.816,-0.258 0.321,-0.054 0.684,-0.086 1.09,-0.097 0.016,-0.059 0.024,-0.11 0.031,-0.153 0.008,-0.043 0.012,-0.09 0.012,-0.133 0,-0.105 -0.019,-0.183 -0.054,-0.246 -0.04,-0.062 -0.094,-0.113 -0.165,-0.152 -0.07,-0.035 -0.152,-0.063 -0.246,-0.074 -0.089,-0.016 -0.191,-0.024 -0.304,-0.024 -0.172,0 -0.364,0.032 -0.582,0.09 -0.219,0.055 -0.395,0.113 -0.532,0.168 H 77.16 l 0.113,-0.59 c 0.114,-0.031 0.282,-0.066 0.5,-0.105 0.219,-0.043 0.43,-0.063 0.633,-0.063 0.414,0 0.727,0.071 0.938,0.203 0.207,0.141 0.308,0.356 0.308,0.649 0,0.055 -0.004,0.117 -0.011,0.183 -0.008,0.063 -0.02,0.122 -0.032,0.18 l -0.523,2.375 h -0.563 z"
       style="fill:#000000;fill-opacity:1;fill-rule:nonzero;stroke:none"
       transform="scale(1.3333333)" />
    <path
       id="path13"
       d="m 85.621,16.18 c 0,0.07 -0.008,0.144 -0.016,0.218 -0.007,0.082 -0.019,0.161 -0.039,0.239 L 85.062,18.91 H 84.5 l 0.438,-1.996 c 0.027,-0.109 0.042,-0.211 0.058,-0.305 0.016,-0.093 0.024,-0.179 0.024,-0.261 0,-0.164 -0.04,-0.286 -0.114,-0.371 -0.074,-0.082 -0.222,-0.125 -0.433,-0.125 -0.161,0 -0.328,0.043 -0.504,0.136 -0.176,0.09 -0.348,0.2 -0.524,0.324 -0.004,0.047 -0.011,0.114 -0.019,0.18 -0.008,0.067 -0.02,0.125 -0.031,0.176 l -0.497,2.242 h -0.562 l 0.441,-1.996 c 0.028,-0.129 0.047,-0.234 0.063,-0.312 0.015,-0.086 0.023,-0.168 0.023,-0.254 0,-0.196 -0.051,-0.325 -0.148,-0.391 -0.102,-0.07 -0.235,-0.105 -0.406,-0.105 -0.121,0 -0.254,0.031 -0.403,0.093 -0.148,0.063 -0.344,0.18 -0.59,0.348 l -0.578,2.617 h -0.57 l 0.777,-3.504 h 0.567 l -0.086,0.391 c 0.207,-0.152 0.402,-0.274 0.582,-0.359 0.18,-0.086 0.367,-0.129 0.566,-0.129 0.227,0 0.406,0.05 0.547,0.152 0.145,0.101 0.238,0.242 0.281,0.418 0.266,-0.199 0.504,-0.348 0.711,-0.434 0.211,-0.09 0.418,-0.136 0.621,-0.136 0.293,0 0.516,0.078 0.664,0.23 0.149,0.152 0.223,0.367 0.223,0.641 z"
       style="fill:#000000;fill-opacity:1;fill-rule:nonzero;stroke:none"
       transform="scale(1.3333333)" />
    <path
       id="path14"
       d="m 88.867,16.777 c 0.008,-0.058 0.016,-0.109 0.02,-0.152 0.004,-0.043 0.008,-0.086 0.008,-0.137 0,-0.226 -0.063,-0.402 -0.18,-0.527 -0.113,-0.125 -0.301,-0.188 -0.559,-0.188 -0.285,0 -0.539,0.094 -0.758,0.278 -0.218,0.183 -0.367,0.426 -0.449,0.726 z m -1.129,2.215 c -0.465,0 -0.832,-0.113 -1.093,-0.34 -0.266,-0.23 -0.399,-0.562 -0.399,-1.004 0,-0.64 0.199,-1.187 0.582,-1.648 0.391,-0.461 0.871,-0.691 1.445,-0.691 0.379,0 0.668,0.101 0.872,0.296 0.203,0.2 0.304,0.477 0.304,0.836 0,0.063 -0.011,0.161 -0.027,0.297 -0.016,0.133 -0.043,0.293 -0.082,0.473 h -2.473 c -0.008,0.062 -0.019,0.121 -0.027,0.18 -0.004,0.058 -0.004,0.113 -0.004,0.16 0,0.301 0.086,0.531 0.262,0.699 0.172,0.164 0.414,0.25 0.73,0.25 0.219,0 0.445,-0.047 0.68,-0.137 0.23,-0.09 0.43,-0.187 0.586,-0.301 h 0.035 l -0.125,0.637 c -0.102,0.039 -0.192,0.071 -0.27,0.102 -0.082,0.031 -0.183,0.062 -0.304,0.094 -0.125,0.031 -0.235,0.054 -0.332,0.074 -0.094,0.015 -0.215,0.023 -0.36,0.023 z"
       style="fill:#000000;fill-opacity:1;fill-rule:nonzero;stroke:none"
       transform="scale(1.3333333)" />
    <path
       id="path15"
       d="m 92.328,15.406 -0.101,0.477 H 91.062 L 90.703,17.5 c -0.023,0.082 -0.039,0.176 -0.055,0.285 -0.015,0.102 -0.023,0.188 -0.023,0.25 0,0.153 0.035,0.266 0.109,0.34 0.075,0.074 0.211,0.113 0.411,0.113 0.082,0 0.179,-0.019 0.293,-0.043 0.113,-0.035 0.191,-0.058 0.23,-0.074 h 0.027 l -0.101,0.508 c -0.114,0.031 -0.235,0.055 -0.364,0.074 -0.125,0.02 -0.234,0.027 -0.335,0.027 -0.274,0 -0.489,-0.062 -0.641,-0.187 -0.149,-0.129 -0.223,-0.332 -0.223,-0.602 0,-0.066 0.004,-0.132 0.012,-0.199 0.008,-0.066 0.023,-0.14 0.039,-0.222 l 0.414,-1.887 h -0.379 l 0.102,-0.477 h 0.379 l 0.226,-1.004 h 0.563 l -0.223,1.004 z"
       style="fill:#000000;fill-opacity:1;fill-rule:nonzero;stroke:none"
       transform="scale(1.3333333)" />
    <path
       id="path16"
       d="m 94.949,16.777 c 0.012,-0.058 0.016,-0.109 0.02,-0.152 0.004,-0.043 0.008,-0.086 0.008,-0.137 0,-0.226 -0.059,-0.402 -0.176,-0.527 -0.117,-0.125 -0.305,-0.188 -0.563,-0.188 -0.285,0 -0.535,0.094 -0.754,0.278 -0.226,0.183 -0.371,0.426 -0.449,0.726 z m -1.129,2.215 c -0.461,0 -0.828,-0.113 -1.093,-0.34 -0.266,-0.23 -0.399,-0.562 -0.399,-1.004 0,-0.64 0.195,-1.187 0.582,-1.648 0.391,-0.461 0.875,-0.691 1.445,-0.691 0.379,0 0.672,0.101 0.872,0.296 0.203,0.2 0.304,0.477 0.304,0.836 0,0.063 -0.008,0.161 -0.027,0.297 -0.016,0.133 -0.043,0.293 -0.082,0.473 h -2.469 c -0.015,0.062 -0.023,0.121 -0.031,0.18 -0.004,0.058 -0.004,0.113 -0.004,0.16 0,0.301 0.086,0.531 0.258,0.699 0.172,0.164 0.414,0.25 0.734,0.25 0.223,0 0.445,-0.047 0.68,-0.137 0.234,-0.09 0.43,-0.187 0.586,-0.301 h 0.035 l -0.125,0.637 c -0.098,0.039 -0.188,0.071 -0.27,0.102 -0.078,0.031 -0.179,0.062 -0.304,0.094 -0.125,0.031 -0.235,0.054 -0.332,0.074 -0.094,0.015 -0.215,0.023 -0.36,0.023 z"
       style="fill:#000000;fill-opacity:1;fill-rule:nonzero;stroke:none"
       transform="scale(1.3333333)" />
    <path
       id="path17"
       d="M 98.602,16.027 H 98.57 c -0.078,-0.019 -0.152,-0.035 -0.222,-0.043 -0.071,-0.011 -0.153,-0.015 -0.25,-0.015 -0.188,0 -0.375,0.043 -0.559,0.133 -0.187,0.089 -0.363,0.195 -0.531,0.324 l -0.543,2.484 h -0.567 l 0.762,-3.504 h 0.57 l -0.113,0.52 c 0.266,-0.196 0.492,-0.328 0.676,-0.403 0.184,-0.082 0.363,-0.117 0.531,-0.117 0.102,0 0.172,0.004 0.215,0.008 0.043,0.004 0.109,0.012 0.191,0.027 z"
       style="fill:#000000;fill-opacity:1;fill-rule:nonzero;stroke:none"
       transform="scale(1.3333333)" />
    <path
       id="path18"
       d="m 99.566,18.996 c -0.25,0 -0.476,-0.031 -0.671,-0.098 -0.2,-0.062 -0.364,-0.132 -0.493,-0.207 l 0.125,-0.632 h 0.032 c 0.039,0.039 0.093,0.082 0.16,0.132 0.066,0.051 0.152,0.102 0.258,0.153 0.093,0.047 0.203,0.09 0.32,0.125 0.121,0.031 0.254,0.054 0.391,0.054 0.281,0 0.507,-0.058 0.667,-0.168 0.161,-0.109 0.239,-0.265 0.239,-0.476 0,-0.109 -0.039,-0.199 -0.121,-0.258 -0.082,-0.059 -0.203,-0.109 -0.356,-0.148 -0.078,-0.016 -0.172,-0.039 -0.285,-0.063 -0.109,-0.019 -0.215,-0.047 -0.332,-0.078 -0.23,-0.07 -0.406,-0.168 -0.516,-0.301 -0.113,-0.133 -0.168,-0.289 -0.168,-0.476 0,-0.164 0.032,-0.321 0.102,-0.461 0.066,-0.141 0.168,-0.274 0.301,-0.391 0.129,-0.113 0.293,-0.207 0.488,-0.273 0.203,-0.075 0.418,-0.11 0.664,-0.11 0.203,0 0.399,0.028 0.598,0.078 0.199,0.055 0.363,0.122 0.488,0.2 l -0.117,0.597 h -0.031 c -0.032,-0.027 -0.082,-0.062 -0.149,-0.109 -0.062,-0.043 -0.144,-0.09 -0.246,-0.141 -0.086,-0.039 -0.187,-0.07 -0.301,-0.101 -0.113,-0.028 -0.238,-0.043 -0.363,-0.043 -0.25,0 -0.453,0.054 -0.605,0.164 -0.153,0.109 -0.231,0.258 -0.231,0.449 0,0.106 0.031,0.191 0.109,0.266 0.075,0.066 0.192,0.121 0.348,0.16 0.098,0.027 0.203,0.051 0.305,0.07 0.113,0.024 0.215,0.047 0.316,0.074 0.231,0.055 0.406,0.153 0.524,0.282 0.117,0.125 0.175,0.285 0.175,0.476 0,0.164 -0.039,0.32 -0.109,0.477 -0.074,0.152 -0.18,0.281 -0.316,0.398 -0.145,0.121 -0.313,0.211 -0.516,0.278 -0.207,0.066 -0.43,0.101 -0.684,0.101 z"
       style="fill:#000000;fill-opacity:1;fill-rule:nonzero;stroke:none"
       transform="scale(1.3333333)" />
    <path
       id="path19"
       d="m 444.371,43.742 h -2.707 v 1.578 h 2.328 v 0.664 h -2.328 v 2.7 h -0.719 v -5.602 h 3.426 z"
       style="fill:#000000;fill-opacity:1;fill-rule:nonzero;stroke:none"
       transform="scale(1.3333333)" />
    <path
       id="path20"
       d="m 445.859,43.773 h -0.761 v -0.734 h 0.761 z m -0.043,4.911 h -0.675 v -4.207 h 0.675 z"
       style="fill:#000000;fill-opacity:1;fill-rule:nonzero;stroke:none"
       transform="scale(1.3333333)" />
    <path
       id="path21"
       d="m 450.418,48.203 c 0,0.715 -0.152,1.238 -0.465,1.574 -0.308,0.332 -0.785,0.5 -1.426,0.5 -0.215,0 -0.425,-0.015 -0.632,-0.05 -0.2,-0.028 -0.395,-0.075 -0.598,-0.129 v -0.723 h 0.039 c 0.109,0.043 0.289,0.098 0.523,0.164 0.243,0.066 0.481,0.102 0.723,0.102 0.23,0 0.422,-0.032 0.574,-0.086 0.153,-0.059 0.27,-0.141 0.352,-0.243 0.086,-0.097 0.144,-0.214 0.18,-0.355 0.035,-0.137 0.054,-0.289 0.054,-0.461 v -0.387 c -0.203,0.172 -0.398,0.305 -0.586,0.387 -0.183,0.082 -0.422,0.125 -0.711,0.125 -0.48,0 -0.863,-0.18 -1.148,-0.543 -0.277,-0.363 -0.418,-0.875 -0.418,-1.535 0,-0.359 0.047,-0.676 0.141,-0.934 0.101,-0.261 0.234,-0.492 0.402,-0.683 0.16,-0.176 0.344,-0.313 0.57,-0.414 0.219,-0.102 0.446,-0.149 0.668,-0.149 0.231,0 0.426,0.024 0.582,0.075 0.16,0.046 0.324,0.121 0.5,0.222 l 0.043,-0.183 h 0.633 z m -0.676,-0.676 v -2.293 c -0.18,-0.086 -0.347,-0.144 -0.504,-0.179 C 449.086,45.016 448.93,45 448.777,45 c -0.371,0 -0.664,0.129 -0.882,0.391 -0.211,0.261 -0.321,0.636 -0.321,1.136 0,0.473 0.082,0.828 0.238,1.075 0.161,0.242 0.426,0.363 0.793,0.363 0.196,0 0.395,-0.039 0.59,-0.117 0.2,-0.078 0.383,-0.184 0.547,-0.321 z"
       style="fill:#000000;fill-opacity:1;fill-rule:nonzero;stroke:none"
       transform="scale(1.3333333)" />
    <path
       id="path22"
       d="m 455.086,48.684 h -0.676 v -0.469 c -0.23,0.191 -0.445,0.336 -0.66,0.437 -0.207,0.098 -0.438,0.149 -0.691,0.149 -0.422,0 -0.75,-0.133 -0.985,-0.403 -0.234,-0.273 -0.351,-0.668 -0.351,-1.191 v -2.73 h 0.675 v 2.398 c 0,0.211 0.008,0.395 0.028,0.547 0.019,0.152 0.062,0.281 0.125,0.39 0.062,0.11 0.148,0.188 0.25,0.239 0.105,0.051 0.254,0.074 0.449,0.074 0.176,0 0.367,-0.047 0.574,-0.141 0.207,-0.093 0.403,-0.214 0.586,-0.363 v -3.144 h 0.676 z"
       style="fill:#000000;fill-opacity:1;fill-rule:nonzero;stroke:none"
       transform="scale(1.3333333)" />
    <path
       id="path23"
       d="m 458.926,45.25 h -0.035 c -0.102,-0.023 -0.2,-0.043 -0.293,-0.051 -0.094,-0.015 -0.207,-0.019 -0.336,-0.019 -0.211,0 -0.41,0.047 -0.606,0.148 -0.195,0.094 -0.383,0.219 -0.562,0.371 v 2.985 h -0.676 v -4.207 h 0.676 v 0.621 c 0.269,-0.223 0.508,-0.383 0.711,-0.473 0.207,-0.102 0.414,-0.148 0.629,-0.148 0.117,0 0.203,0.003 0.257,0.011 0.051,0.004 0.129,0.016 0.235,0.035 z"
       style="fill:#000000;fill-opacity:1;fill-rule:nonzero;stroke:none"
       transform="scale(1.3333333)" />
    <path
       id="path24"
       d="m 462.934,46.652 h -2.965 c 0,0.262 0.035,0.489 0.109,0.68 0.074,0.195 0.176,0.352 0.305,0.473 0.125,0.121 0.273,0.211 0.449,0.269 0.172,0.059 0.359,0.09 0.563,0.09 0.277,0 0.554,-0.055 0.828,-0.168 0.281,-0.117 0.476,-0.226 0.593,-0.34 h 0.039 v 0.774 c -0.23,0.101 -0.46,0.183 -0.699,0.25 -0.238,0.07 -0.488,0.101 -0.75,0.101 -0.672,0 -1.191,-0.187 -1.566,-0.566 -0.371,-0.375 -0.559,-0.914 -0.559,-1.61 0,-0.687 0.176,-1.23 0.535,-1.636 0.36,-0.407 0.832,-0.606 1.422,-0.606 0.543,0 0.961,0.164 1.254,0.496 0.293,0.332 0.442,0.801 0.442,1.414 z m -0.661,-0.539 c 0,-0.371 -0.089,-0.656 -0.269,-0.863 -0.176,-0.203 -0.442,-0.305 -0.801,-0.305 -0.363,0 -0.652,0.114 -0.871,0.336 -0.215,0.223 -0.336,0.5 -0.363,0.832 z"
       style="fill:#000000;fill-opacity:1;fill-rule:nonzero;stroke:none"
       transform="scale(1.3333333)" />
    <path
       id="path25"
       d="m 466.832,47.477 c 0,0.378 -0.152,0.691 -0.457,0.941 -0.305,0.246 -0.719,0.367 -1.242,0.367 -0.297,0 -0.571,-0.035 -0.821,-0.109 -0.25,-0.074 -0.457,-0.156 -0.624,-0.242 v -0.793 h 0.039 c 0.211,0.168 0.449,0.3 0.711,0.398 0.261,0.098 0.511,0.152 0.753,0.152 0.297,0 0.528,-0.054 0.696,-0.156 0.168,-0.097 0.254,-0.254 0.254,-0.469 0,-0.171 -0.047,-0.296 -0.137,-0.378 -0.094,-0.086 -0.266,-0.161 -0.527,-0.219 -0.094,-0.024 -0.223,-0.047 -0.379,-0.078 -0.153,-0.032 -0.293,-0.063 -0.418,-0.098 -0.356,-0.102 -0.606,-0.242 -0.754,-0.43 -0.145,-0.191 -0.219,-0.425 -0.219,-0.703 0,-0.172 0.035,-0.332 0.102,-0.488 0.07,-0.152 0.171,-0.289 0.312,-0.41 0.133,-0.121 0.305,-0.211 0.512,-0.282 0.207,-0.066 0.441,-0.101 0.695,-0.101 0.242,0 0.484,0.031 0.731,0.094 0.246,0.058 0.449,0.132 0.613,0.222 v 0.758 h -0.035 c -0.172,-0.137 -0.383,-0.25 -0.629,-0.34 -0.25,-0.09 -0.492,-0.136 -0.727,-0.136 -0.25,0 -0.457,0.05 -0.629,0.148 -0.168,0.098 -0.254,0.25 -0.254,0.445 0,0.172 0.051,0.301 0.153,0.387 0.101,0.094 0.265,0.164 0.492,0.219 0.125,0.031 0.262,0.058 0.418,0.09 0.156,0.031 0.285,0.058 0.387,0.082 0.316,0.074 0.558,0.203 0.726,0.386 0.172,0.188 0.258,0.434 0.258,0.743 z"
       style="fill:#000000;fill-opacity:1;fill-rule:nonzero;stroke:none"
       transform="scale(1.3333333)" />
    <path
       id="path26"
       d="m 450.629,58.32 h -0.676 v -0.445 c -0.058,0.043 -0.141,0.102 -0.242,0.18 -0.102,0.074 -0.199,0.136 -0.297,0.179 -0.113,0.059 -0.242,0.106 -0.387,0.145 -0.152,0.039 -0.32,0.062 -0.519,0.062 -0.363,0 -0.668,-0.129 -0.922,-0.379 -0.25,-0.25 -0.379,-0.57 -0.379,-0.957 0,-0.32 0.066,-0.578 0.195,-0.773 0.133,-0.199 0.321,-0.355 0.563,-0.469 0.246,-0.109 0.539,-0.187 0.887,-0.226 0.339,-0.039 0.71,-0.071 1.101,-0.09 v -0.109 c 0,-0.165 -0.027,-0.297 -0.082,-0.403 -0.051,-0.101 -0.129,-0.187 -0.23,-0.246 -0.094,-0.059 -0.211,-0.098 -0.344,-0.121 -0.137,-0.02 -0.277,-0.027 -0.422,-0.027 -0.176,0 -0.375,0.023 -0.594,0.074 -0.222,0.051 -0.449,0.121 -0.679,0.215 h -0.036 v -0.723 c 0.129,-0.035 0.321,-0.078 0.571,-0.121 0.25,-0.047 0.496,-0.066 0.738,-0.066 0.285,0 0.531,0.023 0.742,0.074 0.211,0.047 0.395,0.129 0.547,0.246 0.152,0.113 0.266,0.262 0.344,0.449 0.082,0.184 0.121,0.41 0.121,0.684 z m -0.676,-1.031 v -1.176 c -0.203,0.016 -0.449,0.039 -0.73,0.059 -0.278,0.027 -0.496,0.066 -0.661,0.113 -0.195,0.055 -0.351,0.145 -0.476,0.27 -0.121,0.117 -0.176,0.285 -0.176,0.5 0,0.242 0.067,0.422 0.211,0.543 0.133,0.125 0.348,0.183 0.633,0.183 0.238,0 0.457,-0.047 0.652,-0.144 0.199,-0.098 0.379,-0.215 0.547,-0.348 z"
       style="fill:#000000;fill-opacity:1;fill-rule:nonzero;stroke:none"
       transform="scale(1.3333333)" />
    <path
       id="path27"
       d="m 455.297,58.32 h -0.676 v -2.39 c 0,-0.196 -0.016,-0.375 -0.035,-0.543 -0.024,-0.172 -0.063,-0.305 -0.121,-0.399 -0.063,-0.105 -0.149,-0.183 -0.254,-0.234 -0.117,-0.055 -0.266,-0.082 -0.445,-0.082 -0.184,0 -0.379,0.051 -0.578,0.144 -0.204,0.098 -0.395,0.219 -0.583,0.368 v 3.136 h -0.675 v -4.203 h 0.675 v 0.465 c 0.211,-0.18 0.43,-0.324 0.657,-0.426 0.226,-0.101 0.457,-0.156 0.695,-0.156 0.434,0 0.766,0.141 0.996,0.41 0.231,0.278 0.344,0.668 0.344,1.184 z"
       style="fill:#000000;fill-opacity:1;fill-rule:nonzero;stroke:none"
       transform="scale(1.3333333)" />
    <path
       id="path28"
       d="m 459.859,58.32 h -0.675 v -0.437 c -0.196,0.176 -0.399,0.312 -0.61,0.41 -0.211,0.094 -0.441,0.148 -0.687,0.148 -0.481,0 -0.86,-0.195 -1.145,-0.582 -0.281,-0.386 -0.422,-0.921 -0.422,-1.605 0,-0.359 0.051,-0.676 0.145,-0.957 0.097,-0.274 0.23,-0.516 0.394,-0.711 0.164,-0.188 0.356,-0.332 0.571,-0.434 0.218,-0.097 0.445,-0.152 0.675,-0.152 0.211,0 0.399,0.023 0.563,0.074 0.164,0.047 0.336,0.117 0.516,0.215 v -1.824 h 0.675 z m -0.675,-1.031 v -2.414 c -0.184,-0.086 -0.348,-0.145 -0.493,-0.18 -0.14,-0.031 -0.3,-0.047 -0.468,-0.047 -0.379,0 -0.676,0.141 -0.887,0.414 -0.211,0.274 -0.316,0.668 -0.316,1.176 0,0.496 0.082,0.879 0.246,1.141 0.16,0.254 0.422,0.387 0.785,0.387 0.191,0 0.383,-0.043 0.582,-0.133 0.195,-0.09 0.379,-0.207 0.551,-0.344 z"
       style="fill:#000000;fill-opacity:1;fill-rule:nonzero;stroke:none"
       transform="scale(1.3333333)" />
    <path
       id="path29"
       d="m 443.605,64.527 h -0.039 c -0.097,-0.023 -0.199,-0.043 -0.293,-0.05 -0.093,-0.016 -0.207,-0.02 -0.335,-0.02 -0.208,0 -0.411,0.047 -0.61,0.145 -0.187,0.093 -0.375,0.218 -0.555,0.375 v 2.984 h -0.683 v -4.207 h 0.683 v 0.621 c 0.266,-0.223 0.504,-0.387 0.707,-0.477 0.208,-0.097 0.418,-0.144 0.629,-0.144 0.121,0 0.203,0.004 0.258,0.012 0.051,0.004 0.133,0.015 0.238,0.035 z"
       style="fill:#000000;fill-opacity:1;fill-rule:nonzero;stroke:none"
       transform="scale(1.3333333)" />
    <path
       id="path30"
       d="m 447.605,65.934 h -2.96 c 0,0.254 0.035,0.484 0.109,0.675 0.078,0.192 0.18,0.348 0.308,0.473 0.126,0.121 0.27,0.211 0.442,0.27 0.172,0.058 0.363,0.089 0.57,0.089 0.274,0 0.547,-0.054 0.824,-0.168 0.278,-0.117 0.477,-0.226 0.594,-0.339 h 0.035 v 0.769 c -0.226,0.102 -0.461,0.188 -0.699,0.254 -0.238,0.07 -0.488,0.102 -0.75,0.102 -0.664,0 -1.187,-0.188 -1.558,-0.567 -0.375,-0.375 -0.563,-0.914 -0.563,-1.609 0,-0.688 0.18,-1.235 0.535,-1.641 0.36,-0.402 0.832,-0.601 1.418,-0.601 0.543,0 0.961,0.164 1.254,0.492 0.297,0.336 0.441,0.808 0.441,1.414 z m -0.656,-0.543 c -0.004,-0.371 -0.094,-0.661 -0.273,-0.864 -0.172,-0.203 -0.442,-0.304 -0.801,-0.304 -0.363,0 -0.652,0.113 -0.867,0.336 -0.215,0.222 -0.336,0.5 -0.363,0.832 z"
       style="fill:#000000;fill-opacity:1;fill-rule:nonzero;stroke:none"
       transform="scale(1.3333333)" />
    <path
       id="path31"
       d="m 452.172,65.809 c 0,0.339 -0.047,0.652 -0.141,0.937 -0.093,0.277 -0.222,0.52 -0.394,0.715 -0.157,0.184 -0.344,0.332 -0.563,0.434 -0.211,0.101 -0.437,0.148 -0.679,0.148 -0.207,0 -0.399,-0.023 -0.567,-0.07 -0.168,-0.047 -0.34,-0.125 -0.516,-0.219 v 1.758 h -0.679 v -5.754 h 0.679 v 0.441 c 0.18,-0.164 0.383,-0.293 0.606,-0.398 0.223,-0.106 0.465,-0.16 0.719,-0.16 0.484,0 0.859,0.191 1.129,0.574 0.273,0.383 0.406,0.914 0.406,1.594 z m -0.695,0.019 c 0,-0.508 -0.086,-0.887 -0.25,-1.14 -0.165,-0.247 -0.418,-0.372 -0.762,-0.372 -0.195,0 -0.391,0.043 -0.586,0.129 -0.199,0.09 -0.387,0.203 -0.567,0.344 v 2.387 c 0.192,0.09 0.356,0.152 0.493,0.183 0.14,0.032 0.297,0.051 0.472,0.051 0.375,0 0.672,-0.133 0.883,-0.402 0.211,-0.266 0.317,-0.66 0.317,-1.18 z"
       style="fill:#000000;fill-opacity:1;fill-rule:nonzero;stroke:none"
       transform="scale(1.3333333)" />
    <path
       id="path32"
       d="m 456.656,65.859 c 0,0.688 -0.168,1.231 -0.504,1.625 -0.336,0.399 -0.785,0.594 -1.351,0.594 -0.571,0 -1.02,-0.195 -1.356,-0.594 -0.336,-0.394 -0.5,-0.937 -0.5,-1.625 0,-0.683 0.164,-1.226 0.5,-1.621 0.336,-0.398 0.785,-0.597 1.356,-0.597 0.566,0 1.015,0.199 1.351,0.597 0.336,0.395 0.504,0.938 0.504,1.621 z m -0.695,0 c 0,-0.543 -0.102,-0.949 -0.309,-1.211 -0.203,-0.265 -0.484,-0.398 -0.851,-0.398 -0.367,0 -0.653,0.133 -0.856,0.398 -0.203,0.262 -0.304,0.668 -0.304,1.211 0,0.528 0.101,0.93 0.308,1.2 0.203,0.273 0.489,0.41 0.852,0.41 0.363,0 0.644,-0.133 0.847,-0.407 0.207,-0.269 0.313,-0.667 0.313,-1.203 z"
       style="fill:#000000;fill-opacity:1;fill-rule:nonzero;stroke:none"
       transform="scale(1.3333333)" />
    <path
       id="path33"
       d="m 460.215,64.527 h -0.039 c -0.098,-0.023 -0.199,-0.043 -0.293,-0.05 -0.094,-0.016 -0.207,-0.02 -0.336,-0.02 -0.207,0 -0.41,0.047 -0.606,0.145 -0.191,0.093 -0.379,0.218 -0.558,0.375 v 2.984 h -0.676 v -4.207 h 0.676 v 0.621 c 0.269,-0.223 0.504,-0.387 0.707,-0.477 0.207,-0.097 0.418,-0.144 0.629,-0.144 0.121,0 0.203,0.004 0.258,0.012 0.05,0.004 0.132,0.015 0.238,0.035 z"
       style="fill:#000000;fill-opacity:1;fill-rule:nonzero;stroke:none"
       transform="scale(1.3333333)" />
    <path
       id="path34"
       d="m 462.941,67.926 c -0.125,0.035 -0.265,0.062 -0.418,0.086 -0.148,0.023 -0.281,0.031 -0.398,0.031 -0.41,0 -0.723,-0.113 -0.941,-0.348 -0.211,-0.23 -0.321,-0.601 -0.321,-1.109 v -2.234 h -0.457 v -0.594 h 0.457 v -1.211 h 0.684 v 1.211 h 1.394 v 0.594 h -1.394 v 1.914 c 0,0.222 0.004,0.394 0.008,0.519 0.015,0.125 0.05,0.238 0.105,0.348 0.055,0.101 0.125,0.176 0.215,0.222 0.094,0.043 0.238,0.067 0.426,0.067 0.109,0 0.226,-0.016 0.347,-0.047 0.118,-0.035 0.204,-0.066 0.258,-0.086 h 0.035 z"
       style="fill:#000000;fill-opacity:1;fill-rule:nonzero;stroke:none"
       transform="scale(1.3333333)" />
    <path
       id="path35"
       d="m 466.633,66.75 c 0,0.383 -0.153,0.699 -0.457,0.941 -0.305,0.25 -0.719,0.371 -1.242,0.371 -0.301,0 -0.575,-0.035 -0.821,-0.109 -0.25,-0.074 -0.457,-0.156 -0.625,-0.246 v -0.793 h 0.035 c 0.215,0.172 0.454,0.305 0.715,0.402 0.262,0.098 0.512,0.149 0.75,0.149 0.301,0 0.532,-0.051 0.7,-0.153 0.167,-0.097 0.253,-0.257 0.253,-0.472 0,-0.168 -0.046,-0.289 -0.136,-0.375 -0.094,-0.086 -0.27,-0.16 -0.528,-0.223 -0.093,-0.023 -0.222,-0.047 -0.379,-0.078 -0.152,-0.031 -0.293,-0.062 -0.418,-0.098 -0.355,-0.097 -0.605,-0.238 -0.753,-0.429 -0.145,-0.192 -0.219,-0.422 -0.219,-0.696 0,-0.179 0.031,-0.339 0.101,-0.492 0.067,-0.152 0.172,-0.293 0.313,-0.414 0.133,-0.117 0.305,-0.207 0.512,-0.277 0.207,-0.067 0.441,-0.102 0.695,-0.102 0.242,0 0.484,0.032 0.726,0.094 0.25,0.059 0.454,0.133 0.618,0.219 v 0.758 h -0.035 c -0.172,-0.133 -0.383,-0.243 -0.629,-0.332 -0.25,-0.094 -0.493,-0.141 -0.731,-0.141 -0.246,0 -0.453,0.051 -0.625,0.148 -0.172,0.098 -0.254,0.246 -0.254,0.442 0,0.176 0.051,0.304 0.153,0.39 0.101,0.09 0.265,0.161 0.492,0.215 0.125,0.031 0.261,0.059 0.414,0.094 0.156,0.031 0.289,0.055 0.39,0.082 0.313,0.074 0.555,0.203 0.727,0.387 0.172,0.183 0.258,0.433 0.258,0.738 z"
       style="fill:#000000;fill-opacity:1;fill-rule:nonzero;stroke:none"
       transform="scale(1.3333333)" />
    <path
       id="path36"
       d="m 19.418,22.328 c 0,1.727 -0.656,3.383 -1.828,4.606 -1.176,1.222 -2.766,1.91 -4.422,1.91 -1.656,0 -3.246,-0.688 -4.422,-1.91 -1.172,-1.223 -1.828,-2.879 -1.828,-4.606 0,-1.734 0.656,-3.39 1.828,-4.613 1.176,-1.219 2.766,-1.906 4.422,-1.906 1.656,0 3.246,0.687 4.422,1.906 1.172,1.223 1.828,2.879 1.828,4.613 z"
       style="fill:#006798;fill-opacity:1;fill-rule:nonzero;stroke:none"
       transform="scale(1.3333333)" />
    <path
       id="path37"
       d="m 2.668,36.57 c 1.582,-4.632 5.785,-7.726 10.5,-7.726 4.719,0 8.922,3.094 10.504,7.726"
       style="fill:#006798;fill-opacity:1;fill-rule:nonzero;stroke:none"
       transform="scale(1.3333333)" />
    <path
       id="path38"
       d="M 30.164,22.004 H 212.646 V 40.719"
       style="fill:none;stroke:#000000;stroke-width:1.00886;stroke-linecap:butt;stroke-linejoin:miter;stroke-miterlimit:4;stroke-dasharray:none;stroke-opacity:1"
       transform="scale(1.3269533,1.3333333)" />
    <path
       id="path39"
       d="m -38.773,213.867 -3.309,-1.217 3.309,-1.213 c -0.532,0.715 -0.528,1.7 0,2.43 z"
       style="fill:#000000;fill-opacity:1;fill-rule:evenodd;stroke:#000000;stroke-width:0.189162;stroke-linecap:butt;stroke-linejoin:round;stroke-miterlimit:4;stroke-dasharray:none;stroke-opacity:1"
       transform="matrix(0,-1.3333333,1.3269533,0,0,0)" />
    <path
       id="path40"
       d="M 13.373,41.473 V 56.516 L 48.058,56.41"
       style="fill:none;stroke:#000000;stroke-width:1.00886;stroke-linecap:butt;stroke-linejoin:miter;stroke-miterlimit:4;stroke-dasharray:none;stroke-opacity:1"
       transform="scale(1.3269533,1.3333333)" />
    <path
       id="path41"
       d="m -45.941,-55.333 -3.309,-1.217 3.309,-1.217 c -0.528,0.721 -0.527,1.702 0,2.434 z"
       style="fill:#000000;fill-opacity:1;fill-rule:evenodd;stroke:#000000;stroke-width:0.189161;stroke-linecap:butt;stroke-linejoin:round;stroke-miterlimit:4;stroke-dasharray:none;stroke-opacity:1"
       transform="matrix(-1.3269533,0.00410812,-0.00408847,-1.3333333,0,0)" />
    <path
       id="path42"
       d="m 194.988,42.855 h 32.469 c 3,0 5.414,2.528 5.414,5.661 v 16.968 c 0,3.137 -2.414,5.661 -5.414,5.661 h -32.469 c -2.996,0 -5.41,-2.524 -5.41,-5.661 V 48.516 c 0,-3.133 2.414,-5.661 5.41,-5.661 z"
       style="fill:#8fbb20;fill-opacity:1;fill-rule:nonzero;stroke:none"
       transform="scale(1.3333333)" />
    <path
       id="path43"
       d="m 201.676,59.371 h -1.149 v -3.129 l -0.824,2.031 h -0.797 l -0.828,-2.031 v 3.129 h -1.086 v -4.672 h 1.34 l 1.004,2.348 1,-2.348 h 1.34 z"
       style="fill:#ffffff;fill-opacity:1;fill-rule:nonzero;stroke:none"
       transform="scale(1.3333333)" />
    <path
       id="path44"
       d="m 206.074,57.82 h -2.472 c 0.019,0.274 0.117,0.485 0.3,0.633 0.188,0.145 0.461,0.219 0.821,0.219 0.226,0 0.449,-0.043 0.664,-0.129 0.215,-0.082 0.383,-0.176 0.504,-0.277 h 0.121 v 0.906 c -0.242,0.105 -0.473,0.18 -0.688,0.226 -0.219,0.043 -0.457,0.067 -0.719,0.067 -0.675,0 -1.191,-0.156 -1.554,-0.477 -0.363,-0.316 -0.543,-0.769 -0.543,-1.359 0,-0.578 0.176,-1.039 0.512,-1.383 0.339,-0.336 0.812,-0.508 1.406,-0.508 0.547,0 0.961,0.145 1.234,0.434 0.278,0.293 0.414,0.707 0.414,1.25 z M 205,57.156 c -0.004,-0.238 -0.059,-0.414 -0.168,-0.535 -0.105,-0.117 -0.27,-0.176 -0.492,-0.176 -0.207,0 -0.379,0.055 -0.516,0.168 -0.136,0.114 -0.207,0.297 -0.222,0.543 z"
       style="fill:#ffffff;fill-opacity:1;fill-rule:nonzero;stroke:none"
       transform="scale(1.3333333)" />
    <path
       id="path45"
       d="m 208.992,59.34 c -0.117,0.031 -0.242,0.055 -0.371,0.074 -0.129,0.016 -0.289,0.027 -0.476,0.027 -0.418,0 -0.731,-0.089 -0.938,-0.269 -0.203,-0.176 -0.309,-0.481 -0.309,-0.914 v -1.645 h -0.441 v -0.765 h 0.441 v -1.004 h 1.082 v 1.004 h 1.012 v 0.765 h -1.012 v 1.25 c 0,0.121 0,0.231 0.004,0.321 0,0.093 0.016,0.179 0.047,0.25 0.028,0.074 0.078,0.132 0.149,0.175 0.07,0.043 0.175,0.063 0.308,0.063 0.059,0 0.129,-0.012 0.219,-0.035 0.094,-0.028 0.156,-0.051 0.195,-0.071 h 0.09 z"
       style="fill:#ffffff;fill-opacity:1;fill-rule:nonzero;stroke:none"
       transform="scale(1.3333333)" />
    <path
       id="path46"
       d="m 213.023,59.371 h -1.085 v -1.75 c 0,-0.141 -0.008,-0.281 -0.024,-0.422 -0.012,-0.14 -0.035,-0.246 -0.07,-0.312 -0.039,-0.078 -0.098,-0.137 -0.176,-0.172 -0.078,-0.035 -0.184,-0.051 -0.32,-0.051 -0.102,0 -0.2,0.016 -0.301,0.051 -0.102,0.031 -0.211,0.086 -0.328,0.156 v 2.5 h -1.078 v -4.883 h 1.078 v 1.75 c 0.191,-0.16 0.375,-0.277 0.551,-0.363 0.179,-0.082 0.375,-0.125 0.593,-0.125 0.364,0 0.645,0.113 0.852,0.332 0.203,0.223 0.308,0.555 0.308,0.996 z"
       style="fill:#ffffff;fill-opacity:1;fill-rule:nonzero;stroke:none"
       transform="scale(1.3333333)" />
    <path
       id="path47"
       d="m 217.461,57.613 c 0,0.578 -0.16,1.035 -0.484,1.367 -0.325,0.336 -0.778,0.5 -1.364,0.5 -0.582,0 -1.039,-0.164 -1.359,-0.5 -0.324,-0.332 -0.484,-0.789 -0.484,-1.367 0,-0.582 0.16,-1.043 0.484,-1.375 0.328,-0.332 0.781,-0.5 1.359,-0.5 0.59,0 1.047,0.168 1.367,0.504 0.321,0.332 0.481,0.793 0.481,1.371 z m -1.328,0.856 c 0.066,-0.094 0.121,-0.199 0.152,-0.324 0.035,-0.129 0.059,-0.301 0.059,-0.524 0,-0.211 -0.024,-0.383 -0.059,-0.523 -0.031,-0.145 -0.086,-0.254 -0.144,-0.336 -0.071,-0.086 -0.145,-0.149 -0.235,-0.184 -0.086,-0.035 -0.187,-0.051 -0.293,-0.051 -0.105,0 -0.195,0.012 -0.277,0.043 -0.082,0.028 -0.156,0.086 -0.231,0.176 -0.066,0.078 -0.121,0.195 -0.16,0.336 -0.039,0.141 -0.058,0.32 -0.058,0.539 0,0.191 0.019,0.356 0.051,0.496 0.035,0.141 0.085,0.258 0.152,0.344 0.062,0.082 0.14,0.141 0.23,0.176 0.086,0.039 0.188,0.058 0.301,0.058 0.098,0 0.195,-0.019 0.281,-0.05 0.09,-0.036 0.168,-0.094 0.231,-0.176 z"
       style="fill:#ffffff;fill-opacity:1;fill-rule:nonzero;stroke:none"
       transform="scale(1.3333333)" />
    <path
       id="path48"
       d="m 221.512,59.371 h -1.082 v -0.363 c -0.184,0.156 -0.36,0.273 -0.52,0.347 -0.164,0.075 -0.351,0.114 -0.562,0.114 -0.41,0 -0.739,-0.164 -0.985,-0.496 -0.246,-0.328 -0.367,-0.778 -0.367,-1.34 0,-0.297 0.039,-0.559 0.121,-0.793 0.086,-0.231 0.199,-0.426 0.344,-0.594 0.137,-0.156 0.301,-0.277 0.496,-0.363 0.191,-0.086 0.387,-0.133 0.582,-0.133 0.199,0 0.363,0.023 0.492,0.07 0.133,0.043 0.266,0.102 0.399,0.168 v -1.5 h 1.082 z m -1.082,-0.969 v -1.734 c -0.075,-0.031 -0.157,-0.055 -0.239,-0.07 -0.086,-0.016 -0.16,-0.024 -0.23,-0.024 -0.285,0 -0.496,0.094 -0.641,0.278 -0.14,0.187 -0.211,0.445 -0.211,0.769 0,0.348 0.055,0.598 0.172,0.754 0.114,0.156 0.297,0.234 0.547,0.234 0.098,0 0.203,-0.019 0.313,-0.054 0.109,-0.039 0.207,-0.094 0.289,-0.157 z"
       style="fill:#ffffff;fill-opacity:1;fill-rule:nonzero;stroke:none"
       transform="scale(1.3333333)" />
    <path
       id="path49"
       d="m 225.461,58.254 c 0,0.367 -0.156,0.656 -0.469,0.879 -0.308,0.226 -0.738,0.336 -1.277,0.336 -0.301,0 -0.574,-0.028 -0.817,-0.086 -0.246,-0.059 -0.445,-0.125 -0.589,-0.195 v -0.93 h 0.097 c 0.051,0.039 0.117,0.082 0.188,0.129 0.07,0.051 0.172,0.101 0.304,0.156 0.11,0.047 0.239,0.086 0.379,0.125 0.145,0.031 0.293,0.047 0.457,0.047 0.211,0 0.368,-0.024 0.469,-0.07 0.106,-0.051 0.156,-0.122 0.156,-0.223 0,-0.086 -0.031,-0.149 -0.089,-0.184 -0.063,-0.039 -0.176,-0.078 -0.344,-0.113 -0.078,-0.02 -0.188,-0.039 -0.328,-0.059 -0.133,-0.023 -0.258,-0.05 -0.371,-0.082 -0.305,-0.082 -0.532,-0.211 -0.684,-0.39 -0.145,-0.176 -0.219,-0.395 -0.219,-0.656 0,-0.344 0.153,-0.622 0.457,-0.848 0.309,-0.227 0.731,-0.34 1.262,-0.34 0.25,0 0.492,0.027 0.723,0.082 0.23,0.055 0.414,0.109 0.543,0.168 v 0.891 h -0.094 c -0.16,-0.114 -0.344,-0.207 -0.547,-0.278 -0.207,-0.074 -0.41,-0.109 -0.621,-0.109 -0.176,0 -0.32,0.027 -0.442,0.074 -0.117,0.051 -0.175,0.121 -0.175,0.215 0,0.082 0.027,0.148 0.078,0.191 0.054,0.047 0.183,0.09 0.383,0.133 0.109,0.024 0.226,0.047 0.351,0.071 0.129,0.019 0.258,0.046 0.387,0.078 0.281,0.078 0.492,0.199 0.629,0.367 0.137,0.168 0.203,0.375 0.203,0.621 z"
       style="fill:#ffffff;fill-opacity:1;fill-rule:nonzero;stroke:none"
       transform="scale(1.3333333)" />
    <path
       id="path50"
       d="m 387.871,42.855 h 32.469 c 3,0 5.41,2.528 5.41,5.661 v 16.968 c 0,3.137 -2.41,5.661 -5.41,5.661 h -32.469 c -2.996,0 -5.41,-2.524 -5.41,-5.661 V 48.516 c 0,-3.133 2.414,-5.661 5.41,-5.661 z"
       style="fill:#7f89dc;fill-opacity:1;fill-rule:nonzero;stroke:none"
       transform="scale(1.3333333)" />
    <path
       id="path51"
       d="m 116.499,31.668 h 231.985 c 3.305,0 5.97,2.52 5.97,5.652 v 43.407 c 0,3.136 -2.665,5.656 -5.97,5.656 H 116.499 c -3.309,0 -5.97,-2.52 -5.97,-5.656 V 37.32 c 0,-3.132 2.661,-5.652 5.97,-5.652 z"
       style="fill:none;stroke:#000000;stroke-width:0.882195;stroke-linecap:square;stroke-linejoin:round;stroke-miterlimit:4;stroke-dasharray:5.29308, 1.76438;stroke-dashoffset:0;stroke-opacity:1"
       transform="scale(1.3269533,1.3333333)" />
    <path
       id="path52"
       d="m 8.418,9.895 c 0,0.691 -0.203,1.218 -0.606,1.589 C 7.41,11.852 6.816,12.039 6.031,12.039 5.246,12.039 4.652,11.852 4.25,11.484 3.852,11.113 3.648,10.586 3.648,9.898 V 6.316 h 1.391 v 3.5 c 0,0.387 0.078,0.676 0.234,0.868 0.157,0.191 0.411,0.285 0.758,0.285 0.348,0 0.598,-0.094 0.758,-0.274 0.16,-0.187 0.238,-0.48 0.238,-0.879 v -3.5 h 1.391 z"
       style="fill:#000000;fill-opacity:1;fill-rule:nonzero;stroke:none"
       transform="scale(1.3333333)" />
    <path
       id="path53"
       d="m 13.156,10.578 c 0,0.438 -0.187,0.793 -0.562,1.059 -0.375,0.265 -0.887,0.402 -1.539,0.402 -0.36,0 -0.684,-0.035 -0.981,-0.109 C 9.781,11.859 9.547,11.785 9.367,11.699 v -1.113 h 0.121 c 0.067,0.047 0.137,0.102 0.223,0.156 0.09,0.055 0.211,0.117 0.363,0.18 0.137,0.058 0.285,0.109 0.461,0.152 0.168,0.039 0.352,0.059 0.547,0.059 0.254,0 0.441,-0.028 0.566,-0.086 0.122,-0.059 0.184,-0.149 0.184,-0.262 0,-0.101 -0.039,-0.176 -0.109,-0.223 -0.075,-0.05 -0.211,-0.093 -0.411,-0.136 -0.097,-0.024 -0.226,-0.047 -0.394,-0.071 -0.16,-0.027 -0.309,-0.062 -0.445,-0.097 C 10.105,10.156 9.832,10 9.652,9.789 9.48,9.574 9.391,9.312 9.391,8.996 9.391,8.59 9.57,8.25 9.941,7.984 c 0.368,-0.269 0.871,-0.41 1.512,-0.41 0.301,0 0.59,0.031 0.867,0.102 0.278,0.062 0.496,0.129 0.653,0.203 V 8.945 H 12.859 C 12.668,8.809 12.449,8.695 12.199,8.613 11.957,8.523 11.707,8.48 11.457,8.48 c -0.211,0 -0.387,0.032 -0.531,0.09 -0.141,0.063 -0.211,0.145 -0.211,0.254 0,0.102 0.031,0.176 0.097,0.235 0.063,0.05 0.215,0.105 0.458,0.156 0.132,0.027 0.273,0.055 0.425,0.082 0.153,0.027 0.305,0.058 0.457,0.098 0.344,0.093 0.594,0.238 0.758,0.437 0.164,0.203 0.246,0.449 0.246,0.746 z"
       style="fill:#000000;fill-opacity:1;fill-rule:nonzero;stroke:none"
       transform="scale(1.3333333)" />
    <path
       id="path54"
       d="m 18,10.059 h -2.969 c 0.02,0.328 0.137,0.586 0.36,0.757 0.222,0.176 0.554,0.266 0.98,0.266 0.277,0 0.543,-0.055 0.801,-0.156 0.258,-0.102 0.457,-0.211 0.609,-0.328 h 0.141 v 1.086 c -0.293,0.121 -0.567,0.211 -0.824,0.269 -0.262,0.051 -0.547,0.082 -0.864,0.082 -0.812,0 -1.433,-0.191 -1.867,-0.574 -0.429,-0.383 -0.648,-0.926 -0.648,-1.633 0,-0.691 0.203,-1.246 0.613,-1.652 0.41,-0.41 0.973,-0.614 1.688,-0.614 0.656,0 1.152,0.176 1.484,0.524 C 17.832,8.434 18,8.93 18,9.582 Z M 16.711,9.266 C 16.699,8.977 16.637,8.766 16.508,8.625 16.383,8.48 16.184,8.41 15.91,8.41 c -0.25,0 -0.453,0.067 -0.613,0.203 -0.16,0.133 -0.25,0.348 -0.27,0.653 z"
       style="fill:#000000;fill-opacity:1;fill-rule:nonzero;stroke:none"
       transform="scale(1.3333333)" />
    <path
       id="path55"
       d="M 21.844,8.988 H 21.727 C 21.672,8.965 21.582,8.949 21.461,8.938 21.34,8.93 21.238,8.922 21.156,8.922 c -0.187,0 -0.347,0.012 -0.492,0.039 -0.141,0.027 -0.293,0.066 -0.457,0.129 v 2.828 H 18.914 V 7.695 h 1.293 v 0.621 c 0.289,-0.257 0.535,-0.425 0.746,-0.507 0.211,-0.086 0.406,-0.129 0.582,-0.129 0.047,0 0.098,0 0.156,0.004 0.059,0.004 0.11,0.004 0.153,0.011 z"
       style="fill:#000000;fill-opacity:1;fill-rule:nonzero;stroke:none"
       transform="scale(1.3333333)" />
    <path
       id="path56"
       d="m 30.164,11.312 237.578,-0.753 -0.051,30.914"
       style="fill:none;stroke:#000000;stroke-width:1.00886;stroke-linecap:butt;stroke-linejoin:miter;stroke-miterlimit:4;stroke-dasharray:1.00886, 1.00886;stroke-dashoffset:0;stroke-opacity:1"
       transform="scale(1.3269533,1.3333333)" />
    <path
       id="path57"
       d="m -39.074,268.986 -3.307,-1.219 3.303,-1.218 c -0.526,0.719 -0.52,1.7 0.004,2.437 z"
       style="fill:#000000;fill-opacity:1;fill-rule:evenodd;stroke:#000000;stroke-width:0.189162;stroke-linecap:butt;stroke-linejoin:round;stroke-miterlimit:4;stroke-dasharray:none;stroke-opacity:1"
       transform="matrix(0.00225687,-1.3333333,1.3269533,0.00226772,0,0)" />
    <text
       id="text57"
       xml:space="preserve"
       transform="matrix(1.3333333,0,0,1.3397434,17.256137,83.268681)"><tspan
         id="tspan57"
         style="font-style:oblique;font-variant:normal;font-weight:normal;font-size:6.00365px;font-family:'DejaVu Sans';writing-mode:lr-tb;fill:#000000;fill-opacity:1;fill-rule:nonzero;stroke:none"
         x="0"
         y="0">Signal </tspan><tspan
         id="tspan58"
         style="font-style:oblique;font-variant:normal;font-weight:normal;font-size:6.00365px;font-family:'DejaVu Sans';writing-mode:lr-tb;fill:#000000;fill-opacity:1;fill-rule:nonzero;stroke:none"
         x="0"
         y="6.7540908">Parameters</tspan></text>
    <path
       id="path58"
       d="m 30.509,35.02 114.081,-0.11 0.193,13.961"
       style="fill:none;stroke:#000000;stroke-width:1.00891;stroke-linecap:butt;stroke-linejoin:miter;stroke-miterlimit:4;stroke-dasharray:1.00891, 1.00891;stroke-dashoffset:0;stroke-opacity:1"
       transform="scale(1.3269533,1.3333333)" />
    <path
       id="path59"
       d="m -48.927,145.298 -3.304,-1.216 3.306,-1.214 c -0.529,0.719 -0.527,1.7 -0.002,2.43 z"
       style="fill:#000000;fill-opacity:1;fill-rule:evenodd;stroke:#000000;stroke-width:0.189151;stroke-linecap:butt;stroke-linejoin:round;stroke-miterlimit:4;stroke-dasharray:none;stroke-opacity:1"
       transform="matrix(-0.01838547,-1.3333333,1.3269533,-0.01847387,0,0)" />
    <path
       id="path60"
       d="m 249.258,43.121 h 33.98 c 3.133,0 5.664,2.473 5.664,5.551 v 16.656 c 0,3.074 -2.531,5.555 -5.664,5.555 h -33.98 c -3.137,0 -5.66,-2.481 -5.66,-5.555 V 48.672 c 0,-3.078 2.523,-5.551 5.66,-5.551 z"
       style="fill:#8fbb20;fill-opacity:1;fill-rule:nonzero;stroke:none"
       transform="scale(1.3333333)" />
    <text
       id="text60"
       xml:space="preserve"
       transform="matrix(1.3333333,0,0,1.3397434,325.92809,73.971495)"><tspan
         id="tspan60"
         style="font-variant:normal;font-weight:700;font-size:6.00364px;font-family:'DejaVu Sans';writing-mode:lr-tb;fill:#ffffff;fill-opacity:1;fill-rule:nonzero;stroke:none"
         x="0"
         y="0">Performance</tspan><tspan
         id="tspan61"
         style="font-variant:normal;font-weight:700;font-size:6.00364px;font-family:'DejaVu Sans';writing-mode:lr-tb;fill:#ffffff;fill-opacity:1;fill-rule:nonzero;stroke:none"
         x="10.924098"
         y="7.5045462">Metrics</tspan></text>
    <path
       id="path61"
       d="m 303.676,43.121 h 33.98 c 3.137,0 5.66,2.473 5.66,5.551 v 16.656 c 0,3.074 -2.523,5.555 -5.66,5.555 h -33.98 c -3.133,0 -5.66,-2.481 -5.66,-5.555 V 48.672 c 0,-3.078 2.527,-5.551 5.66,-5.551 z"
       style="fill:#8fbb20;fill-opacity:1;fill-rule:nonzero;stroke:none"
       transform="scale(1.3333333)" />
    <text
       id="text61"
       xml:space="preserve"
       transform="matrix(1.3333333,0,0,1.3397434,410.68234,78.998576)"><tspan
         id="tspan62"
         style="font-variant:normal;font-weight:700;font-size:6.00364px;font-family:'DejaVu Sans';writing-mode:lr-tb;fill:#ffffff;fill-opacity:1;fill-rule:nonzero;stroke:none"
         x="0"
         y="0">Results</tspan></text>
    <text
       id="text62"
       xml:space="preserve"
       transform="matrix(1.3333333,0,0,1.3397434,433.52789,134.33727)"><tspan
         id="tspan63"
         style="font-variant:normal;font-weight:normal;font-size:8.00487px;font-family:'DejaVu Sans';writing-mode:lr-tb;fill:#000000;fill-opacity:1;fill-rule:nonzero;stroke:none"
         x="0"
         dx="0 0 0 0 0 -0.60036516 0 0 0 0 0 0 0 0 0 0 0 0 -0.60036516"
         y="0">DataFrame / .csv Files</tspan></text>
    <text
       id="text63"
       xml:space="preserve"
       transform="matrix(1.3333333,0,0,1.3397434,248.05957,109.87998)"><tspan
         id="tspan64"
         style="font-variant:normal;font-weight:700;font-size:7.00424px;font-family:'DejaVu Sans';writing-mode:lr-tb;fill:#000000;fill-opacity:1;fill-rule:nonzero;stroke:none"
         x="0"
         y="0">Benchmark class</tspan></text>
    <path
       id="path64"
       d="m 55.762,46.012 h 34.64 c 3.2,0 5.774,1.578 5.774,3.539 v 10.637 c 0,1.964 -2.574,3.542 -5.774,3.542 h -34.64 c -3.2,0 -5.774,-1.578 -5.774,-3.542 V 49.551 c 0,-1.961 2.574,-3.539 5.774,-3.539 z"
       style="fill:#fc5a20;fill-opacity:1;fill-rule:nonzero;stroke:none"
       transform="scale(1.3333333)" />
    <text
       id="text64"
       xml:space="preserve"
       transform="matrix(1.3333333,0,0,1.3397434,70.381243,71.130537)"><tspan
         id="tspan65"
         style="font-variant:normal;font-weight:700;font-size:6.00364px;font-family:'DejaVu Sans';writing-mode:lr-tb;fill:#ffffff;fill-opacity:1;fill-rule:nonzero;stroke:none"
         x="0"
         y="0">Signal Bank</tspan><tspan
         id="tspan66"
         style="font-variant:normal;font-weight:700;font-size:6.00364px;font-family:'DejaVu Sans';writing-mode:lr-tb;fill:#ffffff;fill-opacity:1;fill-rule:nonzero;stroke:none"
         x="11.615921"
         y="7.5045462">class</tspan><tspan
         id="tspan67"
         style="font-variant:normal;font-weight:700;font-size:6.00364px;font-family:'DejaVu Sans';writing-mode:lr-tb;fill:#ffffff;fill-opacity:1;fill-rule:nonzero;stroke:none"
         x="338.53168"
         y="-1.6317525">Results</tspan><tspan
         id="tspan68"
         style="font-variant:normal;font-weight:700;font-size:6.00364px;font-family:'DejaVu Sans';writing-mode:lr-tb;fill:#ffffff;fill-opacity:1;fill-rule:nonzero;stroke:none"
         x="332.23199"
         y="5.8727937">Interpreter</tspan><tspan
         id="tspan69"
         style="font-variant:normal;font-weight:700;font-size:6.00364px;font-family:'DejaVu Sans';writing-mode:lr-tb;fill:#ffffff;fill-opacity:1;fill-rule:nonzero;stroke:none"
         x="342.64603"
         y="13.37734">class</tspan></text>
    <path
       id="path69"
       d="m 126.828,65.094 h 34.637 c 3.199,0 5.777,1.355 5.777,3.043 v 9.133 c 0,1.691 -2.578,3.05 -5.777,3.05 h -34.637 c -3.199,0 -5.773,-1.359 -5.773,-3.05 v -9.133 c 0,-1.688 2.574,-3.043 5.773,-3.043 z"
       style="fill:#8fbb20;fill-opacity:1;fill-rule:nonzero;stroke:none"
       transform="scale(1.3333333)" />
    <text
       id="text69"
       xml:space="preserve"
       transform="matrix(1.3333333,0,0,1.3397434,178.20815,94.910785)"><tspan
         id="tspan70"
         style="font-variant:normal;font-weight:700;font-size:6.00364px;font-family:'DejaVu Sans';writing-mode:lr-tb;fill:#ffffff;fill-opacity:1;fill-rule:nonzero;stroke:none"
         x="0"
         y="0">Noise </tspan><tspan
         id="tspan71"
         style="font-variant:normal;font-weight:700;font-size:6.00364px;font-family:'DejaVu Sans';writing-mode:lr-tb;fill:#ffffff;fill-opacity:1;fill-rule:nonzero;stroke:none"
         x="-6.6851997"
         y="7.5045462">Generator</tspan></text>
    <path
       id="path71"
       d="m 148.46,55.086 c 0,2.082 -1.687,3.769 -3.772,3.769 -2.084,0 -3.768,-1.687 -3.768,-3.769 0,-2.082 1.684,-3.77 3.768,-3.77 2.085,0 3.772,1.688 3.772,3.77 z"
       style="fill:none;stroke:#000000;stroke-width:0.47025;stroke-linecap:butt;stroke-linejoin:miter;stroke-miterlimit:4;stroke-dasharray:none;stroke-opacity:1"
       transform="scale(1.3269533,1.3333333)" />
    <text
       id="text71"
       xml:space="preserve"
       transform="matrix(1.3333333,0,0,1.3397434,187.52306,76.810299)"><tspan
         id="tspan72"
         style="font-variant:normal;font-weight:normal;font-size:8.00487px;font-family:'DejaVu Sans';writing-mode:lr-tb;fill:#000000;fill-opacity:1;fill-rule:nonzero;stroke:none"
         x="0"
         y="0">+</tspan></text>
    <path
       id="path72"
       d="M 96.952,54.984 138.66,54.871"
       style="fill:none;stroke:#000000;stroke-width:1.00886;stroke-linecap:butt;stroke-linejoin:miter;stroke-miterlimit:4;stroke-dasharray:none;stroke-opacity:1"
       transform="scale(1.3269533,1.3333333)" />
    <path
       id="path73"
       d="m -136.566,-54.024 -3.309,-1.22 3.308,-1.209 c -0.528,0.717 -0.527,1.697 0.001,2.429 z"
       style="fill:#000000;fill-opacity:1;fill-rule:evenodd;stroke:#000000;stroke-width:0.189162;stroke-linecap:butt;stroke-linejoin:round;stroke-miterlimit:4;stroke-dasharray:none;stroke-opacity:1"
       transform="matrix(-1.3269533,0.00362505,-0.00360771,-1.3333333,0,0)" />
    <path
       id="path74"
       d="m 144.582,64.848 0.095,-3.973"
       style="fill:none;stroke:#000000;stroke-width:1.00886;stroke-linecap:butt;stroke-linejoin:miter;stroke-miterlimit:4;stroke-dasharray:none;stroke-opacity:1"
       transform="scale(1.3269533,1.3333333)" />
    <path
       id="path75"
       d="m 59.456,-144.777 -3.305,-1.216 3.308,-1.218 c -0.53,0.719 -0.527,1.7 -0.003,2.434 z"
       style="fill:#000000;fill-opacity:1;fill-rule:evenodd;stroke:#000000;stroke-width:0.189112;stroke-linecap:butt;stroke-linejoin:round;stroke-miterlimit:4;stroke-dasharray:none;stroke-opacity:1"
       transform="matrix(-0.0305452,1.3333333,-1.3269533,-0.030692,0,0)" />
    <path
       id="path76"
       d="m 149.084,54.984 39.973,0.012"
       style="fill:none;stroke:#000000;stroke-width:1.00887;stroke-linecap:butt;stroke-linejoin:miter;stroke-miterlimit:4;stroke-dasharray:none;stroke-opacity:1"
       transform="scale(1.3269533,1.3333333)" />
    <path
       id="path77"
       d="m 187.11,53.773 3.309,1.211 -3.301,1.223 c 0.526,-0.723 0.522,-1.703 -0.008,-2.434 z"
       style="fill:#000000;fill-opacity:1;fill-rule:evenodd;stroke:#000000;stroke-width:0.189162;stroke-linecap:butt;stroke-linejoin:round;stroke-miterlimit:4;stroke-dasharray:none;stroke-opacity:1"
       transform="scale(1.3269533,1.3333333)" />
    <text
       id="text77"
       xml:space="preserve"
       transform="matrix(1.3333333,0,0,1.3397434,41.384088,9.299524)"><tspan
         id="tspan77"
         style="font-style:oblique;font-variant:normal;font-weight:normal;font-size:6.00365px;font-family:'DejaVu Sans';writing-mode:lr-tb;fill:#000000;fill-opacity:1;fill-rule:nonzero;stroke:none"
         x="0"
         dx="0 0 0 0 -0.34220788"
         y="0">User-dened performance metrics</tspan></text>
    <path
       id="path78"
       d="M 7.54,41.473 V 98.027 H 144.025 V 82.191"
       style="fill:none;stroke:#000000;stroke-width:1.00886;stroke-linecap:butt;stroke-linejoin:miter;stroke-miterlimit:4;stroke-dasharray:1.00886, 1.00886;stroke-dashoffset:0;stroke-opacity:1"
       transform="scale(1.3269533,1.3333333)" />
    <path
       id="path79"
       d="m 84.137,-142.804 -3.305,-1.217 3.305,-1.213 c -0.532,0.714 -0.528,1.7 0,2.43 z"
       style="fill:#000000;fill-opacity:1;fill-rule:evenodd;stroke:#000000;stroke-width:0.189162;stroke-linecap:butt;stroke-linejoin:round;stroke-miterlimit:4;stroke-dasharray:none;stroke-opacity:1"
       transform="matrix(0,1.3333333,-1.3269533,0,0,0)" />
    <text
       id="text79"
       xml:space="preserve"
       transform="matrix(1.3333333,0,0,1.3397434,35.211973,127.19794)"><tspan
         id="tspan79"
         style="font-style:oblique;font-variant:normal;font-weight:normal;font-size:6.00365px;font-family:'DejaVu Sans';writing-mode:lr-tb;fill:#000000;fill-opacity:1;fill-rule:nonzero;stroke:none"
         x="0"
         dx="0 0 0 0 -0.34220788"
         y="0">User-dened noise function</tspan></text>
    <text
       id="text80"
       xml:space="preserve"
       transform="matrix(1.3333333,0,0,1.3397434,41.384089,43.483691)"><tspan
         id="tspan80"
         style="font-style:oblique;font-variant:normal;font-weight:normal;font-size:6.00364px;font-family:'DejaVu Sans';writing-mode:lr-tb;fill:#000000;fill-opacity:1;fill-rule:nonzero;stroke:none"
         x="0"
         dx="0 0 0 0 -0.3422077"
         y="0">User-dened signals</tspan></text>
    <path
       id="path80"
       d="m 233.991,55.047 8.046,0.078"
       style="fill:none;stroke:#000000;stroke-width:0.993228;stroke-linecap:butt;stroke-linejoin:miter;stroke-miterlimit:4;stroke-dasharray:none;stroke-opacity:1"
       transform="scale(1.3269533,1.3333333)" />
    <path
       id="path81"
       d="m 241.507,53.867 3.207,1.211 -3.199,1.227 c 0.51,-0.723 0.506,-1.703 -0.008,-2.438 z"
       style="fill:#000000;fill-opacity:1;fill-rule:evenodd;stroke:#000000;stroke-width:0.18623;stroke-linecap:butt;stroke-linejoin:round;stroke-miterlimit:4;stroke-dasharray:none;stroke-opacity:1"
       transform="scale(1.3269533,1.3333333)" />
    <path
       id="path82"
       d="m 290.303,55.047 8.05,0.078"
       style="fill:none;stroke:#000000;stroke-width:0.993228;stroke-linecap:butt;stroke-linejoin:miter;stroke-miterlimit:4;stroke-dasharray:none;stroke-opacity:1"
       transform="scale(1.3269533,1.3333333)" />
    <path
       id="path83"
       d="m 296.218,53.867 3.207,1.211 -3.199,1.227 c 0.51,-0.723 0.506,-1.703 -0.008,-2.438 z"
       style="fill:#000000;fill-opacity:1;fill-rule:evenodd;stroke:#000000;stroke-width:0.18623;stroke-linecap:butt;stroke-linejoin:round;stroke-miterlimit:4;stroke-dasharray:none;stroke-opacity:1"
       transform="scale(1.3269533,1.3333333)" />
    <path
       id="path84"
       d="m 344.983,55.047 37.821,0.078"
       style="fill:none;stroke:#000000;stroke-width:0.993228;stroke-linecap:butt;stroke-linejoin:miter;stroke-miterlimit:4;stroke-dasharray:none;stroke-opacity:1"
       transform="scale(1.3269533,1.3333333)" />
    <path
       id="path85"
       d="m 380.897,53.867 3.206,1.211 -3.198,1.227 c 0.51,-0.723 0.506,-1.703 -0.008,-2.438 z"
       style="fill:#000000;fill-opacity:1;fill-rule:evenodd;stroke:#000000;stroke-width:0.18623;stroke-linecap:butt;stroke-linejoin:round;stroke-miterlimit:4;stroke-dasharray:none;stroke-opacity:1"
       transform="scale(1.3269533,1.3333333)" />
    <path
       id="path86"
       d="m 427.801,55.047 11.575,0.078"
       style="fill:none;stroke:#000000;stroke-width:0.993228;stroke-linecap:butt;stroke-linejoin:miter;stroke-miterlimit:4;stroke-dasharray:none;stroke-opacity:1"
       transform="scale(1.3269533,1.3333333)" />
    <path
       id="path87"
       d="m 438.206,53.867 3.207,1.211 -3.199,1.227 c 0.51,-0.723 0.506,-1.703 -0.008,-2.438 z"
       style="fill:#000000;fill-opacity:1;fill-rule:evenodd;stroke:#000000;stroke-width:0.18623;stroke-linecap:butt;stroke-linejoin:round;stroke-miterlimit:4;stroke-dasharray:none;stroke-opacity:1"
       transform="scale(1.3269533,1.3333333)" />
    <path
       id="path88"
       d="m 369.122,55.047 -0.02,34.383"
       style="fill:none;stroke:#000000;stroke-width:0.993228;stroke-linecap:butt;stroke-linejoin:miter;stroke-miterlimit:4;stroke-dasharray:none;stroke-opacity:1"
       transform="scale(1.3269533,1.3333333)" />
    <path
       id="path89"
       d="m 370.33,88.172 -1.212,3.207 -1.225,-3.199 c 0.722,0.508 1.707,0.504 2.437,-0.008 z"
       style="fill:#000000;fill-opacity:1;fill-rule:evenodd;stroke:#000000;stroke-width:0.18623;stroke-linecap:butt;stroke-linejoin:round;stroke-miterlimit:4;stroke-dasharray:none;stroke-opacity:1"
       transform="scale(1.3269533,1.3333333)" />
  </g>
</svg>
